<?xml version="1.0" standalone="no"?><!-- Generator: Gravit.io --><svg xmlns="http://www.w3.org/2000/svg" xmlns:xlink="http://www.w3.org/1999/xlink" style="isolation:isolate" viewBox="0 0 400 125" width="400" height="125"><defs><clipPath id="_clipPath_I00LUDc4mRkVrTHZ6puRJ1R3BvFSfYXt"><rect width="400" height="125"/></clipPath></defs><g clip-path="url(#_clipPath_I00LUDc4mRkVrTHZ6puRJ1R3BvFSfYXt)"><path d=" M 387.5 125 L 12.5 125 C 5.625 125 0 119.375 0 112.5 L 0 12.5 C 0 5.625 5.625 0 12.5 0 L 387.5 0 C 394.375 0 400 5.625 400 12.5 L 400 112.5 C 400 119.375 394.375 125 387.5 125 Z " fill="rgb(0,0,0)"/><path d=" M 84.375 61.875 C 84.375 52.187 92.5 47.5 92.813 47.187 C 88.125 40.625 81.25 39.687 78.75 39.375 C 72.813 38.75 66.875 42.812 64.063 42.812 C 60.938 42.812 56.25 39.375 51.25 39.375 C 44.688 39.375 38.75 43.125 35.313 49.062 C 28.438 60.937 33.438 78.438 40 88.125 C 43.438 92.813 47.188 98.125 52.188 97.813 C 57.188 97.5 59.063 94.688 65 94.688 C 70.938 94.688 72.5 97.813 77.813 97.813 C 83.125 97.813 86.563 93.125 89.688 88.438 C 93.438 83.125 95 77.813 95 77.5 C 94.688 77.188 84.375 73.438 84.375 61.875 Z " fill="rgb(255,255,255)"/><path d=" M 74.688 33.125 C 77.188 29.688 79.063 25.313 78.75 20.625 C 75 20.938 70 23.125 67.5 26.563 C 65 29.375 62.813 34.063 63.438 38.438 C 67.5 38.75 71.875 36.25 74.688 33.125 Z " fill="rgb(255,255,255)"/><path d=" M 155.625 97.188 L 148.75 97.188 L 145 85.313 L 131.875 85.313 L 128.438 97.188 L 121.875 97.188 L 135 56.875 L 143.125 56.875 L 155.625 97.188 Z  M 143.75 80.313 L 140.313 69.688 C 140 68.75 139.375 65.938 138.125 62.188 L 138.125 62.188 C 137.813 63.75 137.188 66.563 136.25 69.688 L 132.813 80.313 L 143.75 80.313 Z " fill="rgb(255,255,255)"/><path d=" M 189.063 82.5 C 189.063 87.5 187.813 91.25 185 94.375 C 182.5 96.875 179.688 98.125 175.938 98.125 C 172.188 98.125 169.375 96.875 167.813 94.063 L 167.813 94.063 L 167.813 109.375 L 161.25 109.375 L 161.25 78.125 C 161.25 75 161.25 71.875 160.938 68.438 L 166.563 68.438 L 166.875 73.125 L 166.875 73.125 C 169.063 69.688 172.188 67.812 176.563 67.812 C 180 67.812 182.813 69.062 185 71.875 C 187.813 74.375 189.063 77.813 189.063 82.5 Z  M 182.5 82.5 C 182.5 79.688 181.875 77.188 180.625 75.625 C 179.375 73.75 177.5 72.813 175 72.813 C 173.438 72.813 171.875 73.438 170.625 74.375 C 169.375 75.312 168.438 76.875 168.125 78.437 C 167.813 79.375 167.813 80 167.813 80.313 L 167.813 85.313 C 167.813 87.5 168.438 89.063 169.688 90.625 C 170.938 92.188 172.813 92.813 174.688 92.813 C 177.188 92.813 179.063 91.875 180.313 90 C 181.875 88.125 182.5 85.625 182.5 82.5 Z " fill="rgb(255,255,255)"/><path d=" M 222.5 82.5 C 222.5 87.5 221.25 91.25 218.438 94.375 C 215.938 96.875 213.125 98.125 209.375 98.125 C 205.625 98.125 202.813 96.875 201.25 94.063 L 201.25 94.063 L 201.25 109.375 L 194.688 109.375 L 194.688 78.125 C 194.688 75 194.688 71.875 194.375 68.438 L 200 68.438 L 200.313 73.125 L 200.313 73.125 C 202.5 69.688 205.625 67.812 210 67.812 C 213.438 67.812 216.25 69.062 218.438 71.875 C 221.25 74.375 222.5 77.813 222.5 82.5 Z  M 215.938 82.5 C 215.938 79.688 215.313 77.188 214.063 75.625 C 212.813 73.75 210.938 72.813 208.438 72.813 C 206.875 72.813 205.313 73.438 204.063 74.375 C 202.813 75.312 201.875 76.875 201.563 78.437 C 201.25 79.375 201.25 80 201.25 80.313 L 201.25 85.313 C 201.25 87.5 201.875 89.063 203.125 90.625 C 204.375 92.188 206.25 92.813 208.125 92.813 C 210.625 92.813 212.5 91.875 213.75 90 C 215.313 88.125 215.938 85.625 215.938 82.5 Z " fill="rgb(255,255,255)"/><path d=" M 260 85.938 C 260 89.375 258.75 92.188 256.563 94.375 C 254.063 96.875 250.313 97.813 245.625 97.813 C 241.25 97.813 237.813 96.875 235.313 95.313 L 236.875 90 C 239.688 91.563 242.813 92.5 246.25 92.5 C 248.75 92.5 250.625 91.875 251.875 90.938 C 253.125 89.688 253.75 88.438 253.75 86.563 C 253.75 85 253.125 83.438 252.188 82.5 C 250.938 81.25 249.063 80.313 246.563 79.375 C 239.375 76.875 235.938 72.813 235.938 67.813 C 235.938 64.375 237.188 61.875 239.688 59.688 C 242.188 57.5 245.313 56.563 249.688 56.563 C 253.438 56.563 256.25 57.188 258.75 58.438 L 257.188 63.75 C 255 62.5 252.5 61.875 249.375 61.875 C 247.188 61.875 245.313 62.5 244.063 63.438 C 243.125 64.375 242.5 65.625 242.5 67.188 C 242.5 68.75 243.125 70 244.375 71.25 C 245.313 72.188 247.5 73.125 250.313 74.375 C 253.75 75.625 256.25 77.5 258.125 79.375 C 259.063 80.938 260 83.125 260 85.938 Z " fill="rgb(255,255,255)"/><path d=" M 281.25 73.125 L 274.063 73.125 L 274.063 87.188 C 274.063 90.625 275.313 92.5 277.812 92.5 C 279.062 92.5 280 92.5 280.625 92.188 L 280.937 97.188 C 279.687 97.813 278.125 97.813 275.937 97.813 C 273.437 97.813 271.25 97.188 270 95.625 C 268.437 94.063 267.813 91.563 267.813 87.813 L 267.813 73.125 L 263.437 73.125 L 263.437 68.125 L 267.813 68.125 L 267.813 62.812 L 274.063 60.937 L 274.063 68.125 L 281.25 68.125 L 281.25 73.125 Z " fill="rgb(255,255,255)"/><path d=" M 313.438 82.5 C 313.438 86.875 312.188 90.625 309.688 93.438 C 306.875 96.25 303.438 97.813 299.063 97.813 C 294.688 97.813 291.25 96.25 288.75 93.438 C 286.25 90.625 285 87.188 285 82.813 C 285 78.438 286.25 74.688 289.063 71.875 C 291.563 69.063 295.313 67.5 299.688 67.5 C 304.063 67.5 307.5 69.063 310 71.875 C 312.188 74.688 313.438 78.125 313.438 82.5 Z  M 306.563 82.813 C 306.563 80 305.938 77.813 304.688 75.938 C 303.438 73.75 301.25 72.5 298.75 72.5 C 296.25 72.5 294.063 73.75 292.813 75.938 C 291.563 77.813 290.938 80.313 290.938 82.813 C 290.938 85.625 291.563 87.813 292.813 89.688 C 294.063 91.875 296.25 93.125 298.75 93.125 C 301.25 93.125 303.125 91.875 304.688 89.688 C 305.938 87.813 306.563 85.313 306.563 82.813 Z " fill="rgb(255,255,255)"/><path d=" M 334.375 73.75 C 333.75 73.75 333.125 73.438 332.188 73.438 C 330 73.438 328.125 74.375 326.875 75.938 C 325.938 77.5 325.313 79.375 325.313 81.563 L 325.313 96.875 L 318.75 96.875 L 318.75 76.875 C 318.75 73.438 318.75 70.625 318.438 67.813 L 324.063 67.813 L 324.375 73.438 L 324.688 73.438 C 325.313 71.563 326.563 70 327.813 68.75 C 329.375 67.813 330.938 67.188 332.5 67.188 C 333.125 67.188 333.75 67.188 334.063 67.188 L 334.063 73.75 L 334.375 73.75 Z " fill="rgb(255,255,255)"/><path d=" M 363.125 81.25 C 363.125 82.5 363.125 83.438 362.813 84.063 L 343.438 84.063 C 343.438 86.875 344.375 89.063 346.25 90.625 C 347.813 91.875 350 92.813 352.5 92.813 C 355.313 92.813 358.125 92.5 360.313 91.563 L 361.25 95.938 C 358.438 97.188 355.313 97.813 351.563 97.813 C 347.188 97.813 343.438 96.563 340.938 93.75 C 338.438 91.25 337.188 87.5 337.188 83.125 C 337.188 78.75 338.438 75 340.625 72.188 C 343.125 69.063 346.563 67.5 350.938 67.5 C 355 67.5 358.438 69.063 360.313 72.188 C 362.5 74.688 363.125 77.813 363.125 81.25 Z  M 357.188 79.688 C 357.188 77.813 356.875 76.25 355.937 74.688 C 354.687 72.813 353.125 71.875 350.938 71.875 C 348.75 71.875 347.188 72.813 345.938 74.375 C 345 75.625 344.375 77.5 344.063 79.375 L 357.188 79.375 L 357.188 79.688 Z " fill="rgb(255,255,255)"/><path d=" M 141.875 32.188 C 141.875 35.625 140.938 38.438 138.75 40.313 C 136.875 41.875 134.063 42.813 130.313 42.813 C 128.438 42.813 126.875 42.813 125.625 42.5 L 125.625 23.125 C 127.188 22.813 129.063 22.813 131.25 22.813 C 134.687 22.813 137.188 23.438 139.063 25 C 140.625 26.563 141.875 29.063 141.875 32.188 Z  M 138.438 32.188 C 138.438 30 137.813 28.125 136.563 26.875 C 135.313 25.625 133.438 25 131.25 25 C 130.313 25 129.375 25 128.75 25.313 L 128.75 40 C 129.063 40 130 40 130.938 40 C 133.438 40 135.313 39.375 136.563 38.125 C 137.813 36.875 138.438 34.688 138.438 32.188 Z " fill="rgb(255,255,255)"/><path d=" M 159.375 35.313 C 159.375 37.5 158.75 39.375 157.5 40.625 C 156.25 42.188 154.375 42.813 152.188 42.813 C 150 42.813 148.438 42.188 147.188 40.625 C 145.938 39.375 145.313 37.5 145.313 35.313 C 145.313 33.125 145.938 31.25 147.188 30 C 148.438 28.438 150.313 27.813 152.5 27.813 C 154.688 27.813 156.25 28.438 157.5 30 C 158.75 31.25 159.375 33.125 159.375 35.313 Z  M 156.25 35.313 C 156.25 34.063 155.938 32.813 155.313 31.875 C 154.688 30.625 153.75 30.313 152.5 30.313 C 151.25 30.313 150.313 30.938 149.688 31.875 C 149.063 32.813 148.75 34.063 148.75 35.313 C 148.75 36.563 149.063 37.813 149.688 38.75 C 150.313 40 151.25 40.313 152.5 40.313 C 153.75 40.313 154.688 39.688 155.313 38.438 C 155.938 37.813 156.25 36.563 156.25 35.313 Z " fill="rgb(255,255,255)"/><path d=" M 183.438 28.125 L 179.063 42.5 L 176.25 42.5 L 174.375 36.25 C 173.75 34.688 173.438 33.125 173.125 31.563 L 173.125 31.563 C 172.813 33.125 172.5 34.688 171.875 36.25 L 170 42.5 L 167.188 42.5 L 162.5 28.125 L 165.625 28.125 L 167.188 35 C 167.5 36.563 167.813 38.125 168.125 39.688 L 168.125 39.688 C 168.438 38.438 168.75 36.875 169.375 35 L 171.25 28.125 L 173.75 28.125 L 175.625 34.688 C 176.25 36.25 176.563 37.813 176.875 39.375 L 176.875 39.375 C 177.188 37.813 177.5 36.25 177.813 34.688 L 179.688 28.125 L 183.438 28.125 Z " fill="rgb(255,255,255)"/><path d=" M 199.688 42.5 L 196.563 42.5 L 196.563 34.375 C 196.563 31.875 195.625 30.625 193.75 30.625 C 192.813 30.625 192.188 30.938 191.563 31.563 C 190.938 32.188 190.625 33.125 190.625 34.063 L 190.625 42.5 L 187.5 42.5 L 187.5 32.188 C 187.5 30.938 187.5 29.688 187.5 28.125 L 190.313 28.125 L 190.313 30.313 L 190.313 30.313 C 190.625 29.688 191.25 29.063 191.875 28.437 C 192.813 27.813 193.75 27.5 194.688 27.5 C 195.938 27.5 197.188 27.813 198.125 28.75 C 199.375 29.687 199.688 31.25 199.688 33.437 L 199.688 42.5 Z " fill="rgb(255,255,255)"/><path d=" M 208.438 42.5 L 205.313 42.5 L 205.313 21.563 L 208.438 21.563 L 208.438 42.5 Z " fill="rgb(255,255,255)"/><path d=" M 227.188 35.313 C 227.188 37.5 226.563 39.375 225.313 40.625 C 224.063 42.188 222.188 42.813 220 42.813 C 217.813 42.813 216.25 42.188 215 40.625 C 213.75 39.375 213.125 37.5 213.125 35.313 C 213.125 33.125 213.75 31.25 215 30 C 216.25 28.75 218.125 27.813 220.313 27.813 C 222.5 27.813 224.063 28.438 225.313 30 C 226.563 31.25 227.188 33.125 227.188 35.313 Z  M 224.063 35.313 C 224.063 34.063 223.75 32.813 223.125 31.875 C 222.5 30.625 221.563 30.313 220.313 30.313 C 219.063 30.313 218.125 30.938 217.5 31.875 C 216.875 32.813 216.563 34.063 216.563 35.313 C 216.563 36.563 216.875 37.813 217.5 38.75 C 218.125 40 219.063 40.313 220.313 40.313 C 221.563 40.313 222.5 39.688 223.125 38.438 C 223.75 37.813 224.063 36.563 224.063 35.313 Z " fill="rgb(255,255,255)"/><path d=" M 242.5 42.5 L 239.688 42.5 L 239.375 40.938 L 239.375 40.938 C 238.438 42.188 236.875 42.813 235.313 42.813 C 234.063 42.813 232.813 42.5 232.188 41.563 C 231.563 40.625 230.938 39.688 230.938 38.75 C 230.938 36.875 231.563 35.625 233.125 34.688 C 234.688 33.75 236.563 33.438 239.375 33.438 L 239.375 33.125 C 239.375 31.25 238.438 30.313 236.563 30.313 C 235 30.313 234.063 30.625 232.812 31.25 L 232.187 29.063 C 233.438 28.125 235 27.813 237.187 27.813 C 240.937 27.813 242.812 29.688 242.812 33.75 L 242.812 39.063 C 242.5 40.625 242.5 41.562 242.5 42.5 Z  M 239.375 37.5 L 239.375 35.313 C 235.938 35.313 234.063 36.25 234.063 38.125 C 234.063 38.75 234.375 39.375 234.688 39.688 C 235 40 235.625 40.313 236.25 40.313 C 236.875 40.313 237.5 40 238.125 39.688 C 238.75 39.375 239.062 38.75 239.375 38.125 C 239.375 38.125 239.375 37.813 239.375 37.5 Z " fill="rgb(255,255,255)"/><path d=" M 260.625 42.5 L 257.812 42.5 L 257.812 40.313 L 257.812 40.313 C 256.875 42.188 255.313 42.813 253.125 42.813 C 251.25 42.813 250 42.188 248.75 40.938 C 247.5 39.688 247.187 37.813 247.187 35.625 C 247.187 33.438 247.812 31.563 249.062 30 C 250.312 28.75 251.875 28.125 253.437 28.125 C 255.312 28.125 256.562 28.75 257.5 30 L 257.5 30 L 257.5 21.875 L 260.625 21.875 L 260.625 38.75 C 260.625 40 260.625 41.25 260.625 42.5 Z  M 257.5 36.563 L 257.5 34.063 C 257.5 33.75 257.5 33.438 257.5 33.125 C 257.188 32.5 256.875 31.875 256.25 31.25 C 255.625 30.625 255 30.625 254.062 30.625 C 252.812 30.625 251.875 31.25 251.25 32.187 C 250.625 33.125 250.312 34.375 250.312 35.937 C 250.312 37.5 250.625 38.437 251.25 39.375 C 251.875 40.313 252.812 40.937 254.062 40.937 C 255 40.937 255.937 40.625 256.562 39.687 C 257.188 38.438 257.5 37.5 257.5 36.563 Z " fill="rgb(255,255,255)"/><path d=" M 287.813 35.313 C 287.813 37.5 287.188 39.375 285.938 40.625 C 284.688 42.188 282.813 42.813 280.625 42.813 C 278.438 42.813 276.875 42.188 275.625 40.625 C 274.375 39.375 273.75 37.5 273.75 35.313 C 273.75 33.125 274.375 31.25 275.625 30 C 276.875 28.438 278.75 27.813 280.938 27.813 C 283.125 27.813 284.688 28.438 285.938 30 C 287.188 31.25 287.813 33.125 287.813 35.313 Z  M 284.375 35.313 C 284.375 34.063 284.063 32.813 283.437 31.875 C 282.812 30.625 281.875 30.313 280.625 30.313 C 279.375 30.313 278.437 30.938 277.812 31.875 C 277.187 32.813 276.875 34.063 276.875 35.313 C 276.875 36.563 277.187 37.813 277.812 38.75 C 278.437 40 279.375 40.313 280.625 40.313 C 281.875 40.313 282.812 39.688 283.437 38.438 C 284.063 37.813 284.375 36.563 284.375 35.313 Z " fill="rgb(255,255,255)"/><path d=" M 305 42.5 L 301.875 42.5 L 301.875 34.375 C 301.875 31.875 300.938 30.625 299.063 30.625 C 298.125 30.625 297.5 30.938 296.875 31.563 C 296.25 32.188 295.938 33.125 295.938 34.063 L 295.938 42.5 L 292.813 42.5 L 292.813 32.188 C 292.813 30.938 292.813 29.688 292.813 28.125 L 295.625 28.125 L 295.625 30.313 L 295.625 30.313 C 295.938 29.688 296.563 29.063 297.188 28.437 C 298.125 27.813 299.063 27.5 300 27.5 C 301.25 27.5 302.5 27.813 303.438 28.75 C 304.688 29.687 305 31.25 305 33.437 L 305 42.5 Z " fill="rgb(255,255,255)"/><path d=" M 326.25 30.625 L 322.813 30.625 L 322.813 37.5 C 322.813 39.375 323.438 40 324.688 40 C 325.313 40 325.625 40 326.25 40 L 326.25 42.5 C 325.625 42.813 324.688 42.813 323.75 42.813 C 322.5 42.813 321.563 42.5 320.938 41.563 C 320.313 40.938 320 39.375 320 37.813 L 320 30.625 L 317.813 30.625 L 317.813 28.125 L 320 28.125 L 320 25.625 L 323.125 24.688 L 323.125 28.125 L 326.562 28.125 L 326.562 30.625 L 326.25 30.625 Z " fill="rgb(255,255,255)"/><path d=" M 343.125 42.5 L 340 42.5 L 340 34.375 C 340 31.875 339.063 30.625 337.188 30.625 C 335.625 30.625 334.688 31.25 334.063 32.813 C 334.063 33.125 334.063 33.438 334.063 34.063 L 334.063 42.5 L 330.938 42.5 L 330.938 21.563 L 334.063 21.563 L 334.063 30.313 L 334.063 30.313 C 335 28.75 336.563 27.813 338.438 27.813 C 339.688 27.813 340.938 28.125 341.563 29.063 C 342.5 30 343.125 31.875 343.125 33.75 L 343.125 42.5 Z " fill="rgb(255,255,255)"/><path d=" M 360.313 34.688 C 360.313 35.313 360.313 35.625 360.313 36.25 L 350.938 36.25 C 350.938 37.813 351.562 38.75 352.188 39.375 C 353.125 40 354.063 40.313 355.313 40.313 C 356.875 40.313 358.125 40 359.062 39.688 L 359.687 41.875 C 358.437 42.5 356.875 42.813 355 42.813 C 352.812 42.813 350.937 42.188 349.687 40.938 C 348.437 39.688 347.813 37.813 347.813 35.625 C 347.813 33.438 348.437 31.563 349.687 30.313 C 350.938 28.75 352.5 28.125 354.687 28.125 C 356.875 28.125 358.437 28.75 359.375 30.313 C 360 31.25 360.313 32.813 360.313 34.688 Z  M 357.5 33.75 C 357.5 32.813 357.188 31.875 356.875 31.25 C 356.25 30.313 355.625 30 354.375 30 C 353.437 30 352.5 30.313 351.875 31.25 C 351.25 31.875 350.937 32.813 350.937 33.75 L 357.5 33.75 Z " fill="rgb(255,255,255)"/></g></svg>