<?xml version="1.0" standalone="no"?>
<!DOCTYPE svg PUBLIC "-//W3C//DTD SVG 20010904//EN"
 "http://www.w3.org/TR/2001/REC-SVG-20010904/DTD/svg10.dtd">
<svg version="1.0" xmlns="http://www.w3.org/2000/svg"
 width="698.000000pt" height="1280.000000pt" viewBox="0 0 698.000000 1280.000000"
 preserveAspectRatio="xMidYMid meet">
<metadata>
Created by potrace 1.15, written by Peter Selinger 2001-2017
</metadata>
<g transform="translate(0.000000,1280.000000) scale(0.100000,-0.100000)"
fill="#000000" stroke="none">
<path d="M780 12789 c-11 -8 -6 -9 20 -4 19 3 -1 -7 -45 -23 -83 -29 -141 -57
-210 -100 -22 -13 -33 -17 -25 -9 8 9 53 36 100 61 47 25 81 46 77 46 -38 1
-296 -168 -297 -194 0 -6 12 1 28 15 36 33 81 67 62 48 -47 -47 -180 -169
-156 -141 17 17 27 32 23 32 -9 0 -76 -73 -77 -84 0 -5 8 -2 18 5 14 11 13 10
-2 -9 -21 -24 -32 -29 -20 -9 5 8 2 8 -9 -2 -20 -16 -23 -36 -5 -25 8 4 10 3
5 -2 -5 -5 -14 -9 -19 -9 -6 0 -13 -6 -16 -14 -3 -9 0 -11 8 -6 9 5 11 4 6 -4
-4 -6 -11 -9 -16 -6 -5 3 -14 -3 -19 -14 -14 -26 -14 -34 2 -25 7 4 9 3 4 -2
-5 -5 -14 -9 -20 -9 -7 0 -12 -10 -11 -22 0 -12 -4 -21 -9 -20 -5 1 -12 -4
-15 -12 -3 -8 0 -11 7 -7 7 5 9 1 5 -8 -3 -9 -10 -14 -14 -11 -4 3 -17 -17
-28 -43 -28 -68 -35 -92 -24 -92 6 0 8 -10 4 -22 -5 -21 -6 -21 -12 -2 -5 13
-12 -2 -24 -53 -9 -40 -16 -80 -15 -90 1 -24 5 -10 19 60 7 32 14 57 16 54 2
-2 -3 -37 -13 -78 -14 -63 -18 -160 -23 -679 l-7 -605 1 610 c1 336 -2 585 -6
555 -3 -30 -6 -305 -7 -611 -1 -542 -2 -556 -21 -574 -20 -18 -20 -32 -20
-1290 0 -1258 0 -1272 20 -1290 20 -18 20 -36 21 -3539 1 -1937 4 -3546 7
-3576 4 -30 7 1554 7 3520 l0 3575 5 -3570 c5 -3303 7 -3576 23 -3644 9 -41
15 -76 13 -79 -2 -2 -9 23 -16 55 -14 70 -18 84 -19 60 -1 -10 6 -50 15 -90
12 -51 19 -66 24 -53 6 19 7 19 12 -2 4 -12 2 -22 -4 -22 -11 0 -4 -24 24 -92
11 -26 24 -46 28 -43 4 3 11 -2 14 -11 4 -9 2 -13 -5 -8 -7 4 -10 1 -7 -7 3
-8 10 -13 15 -12 5 1 9 -8 9 -20 -1 -12 4 -22 11 -22 6 0 15 -4 20 -9 5 -5 3
-6 -4 -2 -18 10 -16 -5 3 -32 8 -12 20 -19 26 -16 7 4 8 2 4 -4 -8 -13 22 -64
34 -57 4 3 14 -3 21 -13 13 -16 13 -16 -5 -2 -11 8 -17 10 -15 4 5 -16 88
-104 96 -104 4 0 -11 19 -32 43 -22 23 -6 10 35 -29 131 -124 227 -185 374
-236 45 -16 65 -26 46 -23 -26 4 -30 3 -15 -4 27 -13 5373 -13 5400 0 15 7 11
8 -15 4 -19 -3 1 7 45 23 44 16 104 41 134 56 29 15 50 22 46 15 -5 -7 -3 -10
6 -7 8 3 14 10 14 15 0 6 4 15 9 20 5 5 6 3 2 -4 -13 -23 4 -14 64 32 90 69
235 223 178 189 -9 -5 -9 -2 1 9 16 20 25 23 15 5 -4 -7 2 -4 14 6 26 23 30
44 5 25 -16 -11 -16 -11 -5 1 7 8 18 15 24 15 6 0 13 6 16 14 3 9 0 11 -8 6
-9 -5 -11 -4 -6 4 4 6 11 9 16 6 12 -7 43 52 35 66 -4 5 -1 8 7 7 8 -2 13 6
12 19 0 12 3 20 7 17 17 -10 106 241 96 268 -4 8 -6 7 -6 -4 -1 -27 -61 -207
-70 -212 -5 -3 3 25 16 62 14 37 35 108 46 157 l22 90 5 4000 5 4000 5 -3940
5 -3940 5 3940 c5 3933 5 3940 -15 3947 -19 6 -19 6 2 7 12 1 30 4 40 7 15 5
16 4 3 -6 -13 -10 -13 -11 0 -7 13 3 15 60 18 417 1 248 -1 417 -7 423 -5 5
-24 13 -43 18 -32 9 -32 9 7 5 34 -4 37 -3 18 6 l-23 11 -2 981 -3 981 -5
-985 -5 -985 -6 1045 c-5 1015 -6 1048 -26 1135 -18 77 -46 163 -78 239 -6 15
-5 17 5 11 8 -5 11 -3 8 6 -3 8 -10 13 -15 12 -5 -1 -9 8 -9 20 1 13 -4 21
-12 19 -8 -1 -11 2 -7 7 8 14 -23 73 -35 66 -5 -3 -12 0 -16 6 -5 8 -3 9 6 4
8 -5 11 -3 8 6 -3 8 -10 14 -16 14 -6 0 -17 7 -24 15 -11 12 -11 12 5 1 9 -7
17 -9 17 -3 0 12 -25 34 -32 27 -3 -3 -11 3 -19 12 -13 16 -12 17 4 4 33 -26
17 1 -36 59 -76 84 -189 174 -278 220 -43 22 -81 40 -86 40 -4 0 30 -21 77
-46 47 -25 92 -52 100 -61 8 -8 -3 -4 -25 9 -69 43 -127 71 -210 100 -44 16
-64 26 -45 23 26 -5 31 -4 20 4 -10 7 -862 11 -2705 11 -1843 0 -2695 -4
-2705 -11z m4838 -404 c15 -15 21 -24 13 -20 -11 6 -13 4 -7 -11 24 -63 10
-118 -39 -150 -25 -16 -76 -16 -120 0 -13 5 -11 2 5 -8 85 -52 191 22 176 123
l-5 36 11 -32 c23 -69 -43 -153 -119 -153 -38 0 -83 20 -104 47 -13 16 -13 17
4 4 18 -14 24 -2 6 16 -13 13 -16 69 -6 106 6 22 5 27 -5 22 -7 -4 2 8 21 25
31 30 38 32 88 28 43 -4 60 -11 81 -33z m-3632 -77 c15 -19 16 -20 2 -9 -19
14 -22 12 -12 -13 3 -9 10 -14 14 -11 5 3 12 0 16 -6 4 -7 3 -10 -2 -7 -5 3
-16 -9 -25 -27 -14 -30 -14 -33 0 -28 9 2 5 -3 -9 -11 -32 -20 -60 -20 -87 -1
-25 18 -39 63 -23 79 8 8 10 7 5 -5 -7 -19 11 -69 25 -69 6 0 4 11 -5 24 -11
16 -14 33 -9 51 6 22 4 26 -7 20 -8 -5 -5 1 5 13 26 30 86 30 112 0z m2694
-34 l25 -12 -30 -8 c-49 -14 -2366 -11 -2390 3 -17 10 -16 12 20 18 22 3 47 8
55 10 8 1 528 2 1155 1 831 -1 1147 -4 1165 -12z m1988 -597 c9 -7 12 -1088
12 -5353 0 -2939 -1 -5345 -2 -5346 -2 -1 -165 -4 -363 -8 l-360 -7 365 1
c200 1 351 -2 335 -5 -39 -9 -6301 -9 -6340 0 -16 3 133 6 330 5 l360 0 -340
6 c-187 3 -341 7 -342 8 -2 1 -3 2404 -3 5341 l0 5339 623 7 c342 4 1770 6
3172 4 1403 -2 2404 -1 2225 2 -451 9 -5079 10 -5602 2 l-428 -6 -3 -5346 -2
-5346 -3 5352 -2 5353 263 3 c571 7 6093 1 6105 -6z m-2366 -10962 c25 -9 60
-32 79 -52 19 -20 28 -33 22 -29 -17 9 -16 1 1 -32 29 -58 29 -130 -1 -209 -5
-12 -3 -14 7 -8 9 5 11 4 6 -4 -4 -6 -11 -9 -15 -7 -4 3 -21 -9 -37 -26 l-29
-32 29 18 c16 10 25 13 22 7 -4 -6 -21 -18 -38 -27 -16 -9 -27 -11 -24 -5 9
14 -4 14 -24 1 -13 -9 -13 -10 0 -10 13 0 13 -1 0 -10 -9 -6 -315 -10 -815 -9
-695 0 -803 2 -825 15 l-25 15 25 -6 c21 -5 22 -4 8 5 -10 6 -26 10 -35 8 -10
-2 -18 2 -18 7 0 6 -12 26 -26 45 -52 70 -62 145 -29 219 23 51 24 54 8 45 -7
-4 2 9 21 29 64 68 33 65 892 66 674 1 781 -1 821 -14z"/>
<path d="M2335 12271 l-40 -6 49 -8 c64 -9 2239 -8 2291 2 l40 7 -55 7 c-68 8
-2230 7 -2285 -2z m1708 -8 c-303 -2 -803 -2 -1110 0 -307 1 -58 2 552 2 611
0 862 -1 558 -2z"/>
<path d="M2688 712 c-10 -4 349 -7 797 -7 448 0 807 3 797 7 -9 4 -368 7 -797
7 -429 0 -788 -3 -797 -7z"/>
<path d="M3088 293 c222 -2 582 -2 800 0 218 1 37 2 -403 2 -440 0 -619 -1
-397 -2z"/>
</g>
</svg>
